<svg width="28" height="28" viewBox="0 0 28 28" fill="none" xmlns="http://www.w3.org/2000/svg">
<path fill-rule="evenodd" clip-rule="evenodd" d="M19.8333 8.16667C19.8333 7.23841 19.4646 6.34818 18.8082 5.6918C18.1518 5.03542 17.2616 4.66667 16.3333 4.66667H11.6667C10.7384 4.66667 9.84817 5.03542 9.19179 5.6918C8.53542 6.34818 8.16667 7.23841 8.16667 8.16667H7C6.07174 8.16667 5.1815 8.53542 4.52513 9.1918C3.86875 9.84818 3.5 10.7384 3.5 11.6667V21C3.5 21.9283 3.86875 22.8185 4.52513 23.4749C5.1815 24.1313 6.07174 24.5 7 24.5H21C21.9283 24.5 22.8185 24.1313 23.4749 23.4749C24.1313 22.8185 24.5 21.9283 24.5 21V11.6667C24.5 10.7384 24.1313 9.84818 23.4749 9.1918C22.8185 8.53542 21.9283 8.16667 21 8.16667H19.8333ZM16.3333 7.00001H11.6667C11.3572 7.00001 11.0605 7.12292 10.8417 7.34171C10.6229 7.56051 10.5 7.85725 10.5 8.16667H17.5C17.5 7.85725 17.3771 7.56051 17.1583 7.34171C16.9395 7.12292 16.6428 7.00001 16.3333 7.00001ZM7 10.5H21C21.3094 10.5 21.6062 10.6229 21.825 10.8417C22.0438 11.0605 22.1667 11.3573 22.1667 11.6667V21C22.1667 21.3094 22.0438 21.6062 21.825 21.825C21.6062 22.0438 21.3094 22.1667 21 22.1667H7C6.69058 22.1667 6.39383 22.0438 6.17504 21.825C5.95625 21.6062 5.83333 21.3094 5.83333 21V11.6667C5.83333 11.3573 5.95625 11.0605 6.17504 10.8417C6.39383 10.6229 6.69058 10.5 7 10.5Z" fill="white"/>
</svg>
