<svg width="256" height="204" viewBox="0 0 256 204" fill="none" xmlns="http://www.w3.org/2000/svg">
<path d="M230 178.5H204.5V66.9375L128 114.75L51.5 66.9375V178.5H26V25.5H41.3L128 79.6875L214.7 25.5H230V178.5ZM230 0H26C11.8475 0 0.5 11.3475 0.5 25.5V178.5C0.5 185.263 3.1866 191.749 7.96878 196.531C12.751 201.313 19.237 204 26 204H230C236.763 204 243.249 201.313 248.031 196.531C252.813 191.749 255.5 185.263 255.5 178.5V25.5C255.5 18.737 252.813 12.251 248.031 7.46877C243.249 2.6866 236.763 0 230 0Z" fill="#727272"/>
</svg>
